<?xml version="1.0" encoding="utf-8"?><svg viewBox="0 0 522 252" xmlns="http://www.w3.org/2000/svg" xmlns:xlink="http://www.w3.org/1999/xlink"><style>:root>svg{display:none}:root>svg:target{display:block}</style><svg fill="none" viewBox="0 0 16 22" id="arrow-up" xmlns="http://www.w3.org/2000/svg"><path d="M9.031.585a1.444 1.444 0 0 0-.477-.303 1.358 1.358 0 0 0-1.097 0c-.178.069-.34.172-.477.303L1.202 6.363a1.45 1.45 0 0 0 2.051 2.051l3.308-3.322v15.297a1.444 1.444 0 1 0 2.889 0V5.092l3.308 3.322a1.45 1.45 0 0 0 2.05-2.051L9.032.585Z" fill="currentColor"/></svg><svg fill="none" viewBox="0 0 24 24" id="bracket-gt" xmlns="http://www.w3.org/2000/svg"><path d="M8.4 1.2 6.72 3l8.88 9-8.88 9 1.68 1.8L19.2 12 8.4 1.2Z" fill="currentColor"/></svg><svg fill="none" viewBox="0 0 24 24" id="bracket-lt" xmlns="http://www.w3.org/2000/svg"><path d="m15.6 22.8 1.68-1.8-8.88-9 8.88-9-1.68-1.8L4.8 12l10.8 10.8Z" fill="currentColor"/></svg><svg fill="none" viewBox="0 0 19 19" id="cross" xmlns="http://www.w3.org/2000/svg"><path d="m1.1 1.1 8 8m0 0 8 8m-8-8-8 8m8-8 8-8" stroke="currentColor" stroke-width="2.2" stroke-linecap="round" stroke-linejoin="round"/></svg><svg fill="none" viewBox="0 0 522 252" id="envelope-cover-2" xmlns="http://www.w3.org/2000/svg"><g filter="url(#ea)"><path d="M506.48 43.449V13.6H12.6v29.812c0 4.31 1.955 8.389 5.316 11.088l217.458 174.675a40.133 40.133 0 0 0 50.393-.107L501.212 54.499a14.224 14.224 0 0 0 5.268-11.05Z" fill="url(#eb)"/></g><defs><linearGradient id="eb" x1="221.953" y1="268.679" x2="279.593" y2="48.052" gradientUnits="userSpaceOnUse"><stop stop-color="#DCE9AD"/><stop offset="1" stop-color="#B2CB9D"/></linearGradient><filter id="ea" x="0" y="0" width="521.081" height="251.618" filterUnits="userSpaceOnUse" color-interpolation-filters="sRGB"><feFlood flood-opacity="0" result="BackgroundImageFix"/><feColorMatrix in="SourceAlpha" values="0 0 0 0 0 0 0 0 0 0 0 0 0 0 0 0 0 0 127 0" result="hardAlpha"/><feOffset dx="1"/><feGaussianBlur stdDeviation="6.8"/><feComposite in2="hardAlpha" operator="out"/><feColorMatrix values="0 0 0 0 0 0 0 0 0 0 0 0 0 0 0 0 0 0 0.25 0"/><feBlend in2="BackgroundImageFix" result="effect1_dropShadow_11560_133900"/><feBlend in="SourceGraphic" in2="effect1_dropShadow_11560_133900" result="shape"/></filter></defs></svg><svg fill="none" viewBox="0 0 14 9" id="link-arrow" xmlns="http://www.w3.org/2000/svg"><path d="M12.7 4.034 9.365.7m3.333 3.334L9.366 7.367m3.333-3.333H.7" stroke="#000" stroke-width="1.4" stroke-linecap="round" stroke-linejoin="round"/></svg><svg fill="none" viewBox="0 0 181 26" id="logo" xmlns="http://www.w3.org/2000/svg"><path d="M153.773 1.75v3.826h10.075V24.26h4.615V5.576h10.108V1.75h-24.798Zm-21.115 6.206c0-1.93 2.698-2.895 7.41-2.895 4.711 0 7.475 1.544 7.475 3.923h4.712c-.032-4.663-4.908-7.75-12.317-7.75-7.41 0-11.96 2.509-11.96 7.107 0 10.45 20.117 3.408 20.117 9.486 0 2.122-2.957 3.087-8.32 3.087-4.745 0-7.637-1.544-7.605-3.89h-4.81c-.065 4.598 4.843 7.75 12.61 7.75 7.768 0 12.773-2.445 12.773-7.14 0-10.578-20.086-4.018-20.086-9.678h.001Zm-21.209-6.722c-8.255 0-13.715 4.695-13.715 11.77 0 7.074 5.46 11.768 13.715 11.768 8.255 0 13.715-4.694 13.715-11.769 0-7.074-5.493-11.769-13.715-11.769Zm0 19.68c-5.46 0-9.1-3.023-9.1-7.91 0-4.888 3.64-7.943 9.1-7.943 5.46 0 9.1 3.055 9.1 7.942 0 4.888-3.64 7.91-9.1 7.91ZM81.508 5.06c5.232 0 8.84 2.476 9.034 6.496h4.68c0-6.206-5.46-10.322-13.714-10.322-8.255 0-13.715 4.695-13.715 11.77 0 7.074 5.492 11.768 13.715 11.768 8.222 0 13.714-4.116 13.714-10.321h-4.68c-.162 4.019-3.77 6.463-9.034 6.463-5.265 0-9.1-3.023-9.1-7.91 0-4.888 3.64-7.943 9.1-7.943Zm-25.526 8.395v-.065l2.405-.032c4.29 0 7.312-2.058 7.312-5.659s-2.6-5.949-7.312-5.949H40.512v22.51h4.615l-.033-9.551h7.572c4.063 0 5.168 2.058 9.393 9.55h5.362c-3.867-7.33-6.077-10.45-11.44-10.804h.001Zm-10.887-2.477-.032-5.466H57.25c2.665 0 3.834.869 3.834 2.862 0 1.64-1.137 2.605-3.834 2.605H45.095ZM36.037 1.75h-4.615v22.51h4.615V1.75Zm-13.689 8.618H7.041V1.75H2.426v22.509H7.04V14.226h15.307V24.26h4.615V1.75h-4.615v8.618Z" fill="currentColor"/></svg><svg fill="none" viewBox="0 0 12 21" id="slider-next" xmlns="http://www.w3.org/2000/svg"><path d="m1.1 1.1 9.333 9.333L1.1 19.766" stroke="currentColor" stroke-width="2.2" stroke-linecap="round" stroke-linejoin="round"/></svg><svg fill="none" viewBox="0 0 12 21" id="slider-prev" xmlns="http://www.w3.org/2000/svg"><path d="M10.433 19.767 1.1 10.433 10.433 1.1" stroke="currentColor" stroke-width="2.2" stroke-linecap="round" stroke-linejoin="round"/></svg><svg fill="none" viewBox="0 0 14 12" id="tg" xmlns="http://www.w3.org/2000/svg"><path d="m13.333.413-2.109 10.768s-.295.747-1.106.389L5.252 7.79l-.022-.01c.657-.598 5.754-5.239 5.977-5.45.345-.325.13-.52-.27-.273L3.408 6.899.504 5.91s-.458-.164-.501-.522c-.045-.359.516-.553.516-.553L12.36.13s.973-.433.973.283Z" fill="#fff"/></svg><svg fill="none" viewBox="0 0 15 9" id="vk" xmlns="http://www.w3.org/2000/svg"><path d="M14.397 9h-1.642c-.621 0-.808-.509-1.922-1.634C9.86 6.419 9.45 6.3 9.203 6.3c-.34 0-.433.095-.433.568V8.36c0 .404-.13.64-1.173.64a6.36 6.36 0 0 1-2.865-.906 6.436 6.436 0 0 1-2.141-2.125A13.286 13.286 0 0 1 0 .475C0 .226.094.001.563.001h1.64c.423 0 .574.19.74.628.797 2.368 2.156 4.428 2.708 4.428.212 0 .304-.094.304-.627V1.99C5.885.879 5.3.785 5.3.382a.41.41 0 0 1 .134-.276A.403.403 0 0 1 5.721 0h2.58c.352 0 .469.177.469.603v3.293c0 .356.15.473.257.473.212 0 .375-.117.763-.508A13.691 13.691 0 0 0 11.806.474a.7.7 0 0 1 .715-.472h1.642c.492 0 .596.248.492.603A20.763 20.763 0 0 1 12.45 4.43c-.177.273-.248.414 0 .734.163.249.739.734 1.125 1.196a7.38 7.38 0 0 1 1.383 1.94c.141.463-.093.7-.562.7Z" fill="#EEE"/></svg></svg>