<svg width="181" height="26" viewBox="0 0 181 26" fill="none" xmlns="http://www.w3.org/2000/svg">
<path d="M153.773 1.75V5.57635H163.848V24.2588H168.463V5.57635H178.571V1.75H153.773Z" fill="currentColor "/>
<path d="M132.658 7.95561C132.658 6.02637 135.356 5.0614 140.068 5.0614C144.779 5.0614 147.543 6.60494 147.543 8.98418H152.255C152.223 4.32144 147.347 1.23438 139.938 1.23438C132.528 1.23438 127.978 3.74287 127.978 8.34064C127.978 18.7911 148.095 11.7491 148.095 17.8268C148.095 19.9489 145.138 20.9139 139.775 20.9139C135.03 20.9139 132.138 19.3704 132.17 17.0233H127.36C127.295 21.6217 132.203 24.7731 139.97 24.7731C147.738 24.7731 152.743 22.3289 152.743 17.6347C152.743 7.05562 132.657 13.6155 132.657 7.95561H132.658Z" fill="currentColor " />
<path d="M111.449 1.23438C103.194 1.23438 97.7344 5.92926 97.7344 13.0034C97.7344 20.0775 103.194 24.7724 111.449 24.7724C119.704 24.7724 125.164 20.0775 125.164 13.0034C125.164 5.92926 119.671 1.23438 111.449 1.23438ZM111.449 20.9139C105.989 20.9139 102.349 17.8911 102.349 13.0034C102.349 8.11564 105.989 5.06072 111.449 5.06072C116.909 5.06072 120.549 8.11564 120.549 13.0034C120.549 17.8911 116.909 20.9139 111.449 20.9139Z" fill="currentColor " />
<path d="M81.5076 5.06072C86.74 5.06072 90.3473 7.53639 90.5422 11.5563H95.2223C95.2223 5.35 89.7625 1.23438 81.5076 1.23438C73.2527 1.23438 67.793 5.92926 67.793 13.0034C67.793 20.0775 73.2852 24.7724 81.5076 24.7724C89.7301 24.7724 95.2223 20.6561 95.2223 14.4505H90.5422C90.3798 18.4697 86.7724 20.9139 81.5076 20.9139C76.2428 20.9139 72.4081 17.8911 72.4081 13.0034C72.4081 8.11564 76.0479 5.06072 81.5076 5.06072Z" fill="currentColor " />
<path d="M55.982 13.4547V13.3904L58.3867 13.3583C62.6769 13.3583 65.6988 11.3005 65.6988 7.69913C65.6988 4.09778 63.0992 1.75 58.3867 1.75H40.5117V24.2594H45.1268L45.0943 14.709H52.6663C56.7285 14.709 57.8337 16.7668 62.059 24.2594H67.4213C63.554 16.9282 61.3436 13.809 55.9813 13.4554L55.982 13.4547ZM45.095 10.9784L45.0625 5.51206H57.2497C59.9149 5.51206 61.0844 6.3806 61.0844 8.37413C61.0844 10.0141 59.9467 10.979 57.2497 10.979H45.095V10.9784Z" fill="currentColor " />
<path d="M36.037 1.75H31.4219V24.2594H36.037V1.75Z" fill="currentColor " />
<path d="M22.348 10.3677H7.04088V1.75H2.42578V24.2588H7.04088V14.2261H22.348V24.2588H26.9631V1.75H22.348V10.3677Z" fill="currentColor " />
</svg>
