<svg width="15" height="9" viewBox="0 0 15 9" fill="none" xmlns="http://www.w3.org/2000/svg">
<path d="M14.3972 8.99927H12.7548C12.1337 8.99927 11.9466 8.49118 10.8332 7.36594C9.8601 6.4188 9.44914 6.30104 9.203 6.30104C8.86257 6.30104 8.76973 6.39554 8.76973 6.86875V8.36033C8.76973 8.76376 8.64018 9 7.5966 9C6.58417 8.93131 5.60238 8.62067 4.73211 8.09368C3.86183 7.56668 3.12797 6.83841 2.59098 5.96885C1.31637 4.36578 0.429244 2.48474 0 0.474994C0 0.226397 0.0935631 0.00106002 0.562817 0.00106002H2.20377C2.62552 0.00106002 2.77738 0.190779 2.94292 0.629096C3.73964 2.99731 5.09918 5.05733 5.6512 5.05733C5.8628 5.05733 5.95492 4.96283 5.95492 4.43002V1.99057C5.88511 0.877694 5.29998 0.783924 5.29998 0.381225C5.30738 0.274983 5.3555 0.17584 5.43412 0.104855C5.51274 0.0338704 5.61566 -0.00336444 5.72102 0.00106002H8.30048C8.65314 0.00106002 8.76973 0.178422 8.76973 0.604381V3.89721C8.76973 4.25266 8.92087 4.37042 9.02739 4.37042C9.23899 4.37042 9.40164 4.25266 9.78957 3.86159C10.6208 2.83715 11.3001 1.69611 11.8062 0.474268C11.8578 0.327409 11.9556 0.201677 12.0847 0.116337C12.2138 0.0309979 12.367 -0.00924092 12.5209 0.00178686H14.1626C14.6548 0.00178686 14.7592 0.250385 14.6548 0.605109C14.0576 1.95589 13.3188 3.23818 12.4511 4.43002C12.274 4.70261 12.2035 4.84435 12.4511 5.16418C12.6137 5.41278 13.1895 5.89835 13.576 6.35992C14.1388 6.9269 14.6059 7.58256 14.9593 8.30073C15.1003 8.76303 14.8657 8.99927 14.3972 8.99927Z" fill="#EEEEEE"/>
</svg>
